{
  "accessors": [
    {
      "bufferView": 1,
      "componentType": 5126,
      "type": "VEC3",
      "count": 5686,
      "min": [-11, -5, 0],
      "max": [13, 9, 29]
    },
    {
      "bufferView": 1,
      "componentType": 5126,
      "type": "VEC3",
      "byteOffset": 12,
      "count": 5686
    },
    {
      "bufferView": 1,
      "componentType": 5126,
      "type": "VEC2",
      "byteOffset": 24,
      "count": 5686
    },
    {
      "bufferView": 2,
      "componentType": 5125,
      "type": "SCALAR",
      "count": 29496
    },
    {
      "bufferView": 3,
      "componentType": 5126,
      "type": "VEC3",
      "count": 212,
      "min": [-10, -5, 19],
      "max": [-7, -1, 25]
    },
    {
      "bufferView": 3,
      "componentType": 5126,
      "type": "VEC3",
      "byteOffset": 12,
      "count": 212
    },
    {
      "bufferView": 3,
      "componentType": 5126,
      "type": "VEC2",
      "byteOffset": 24,
      "count": 212
    },
    {
      "bufferView": 4,
      "componentType": 5125,
      "type": "SCALAR",
      "count": 648
    },
    {
      "bufferView": 5,
      "componentType": 5126,
      "type": "VEC3",
      "count": 212,
      "min": [-7, -5, 19],
      "max": [-4, -1, 25]
    },
    {
      "bufferView": 5,
      "componentType": 5126,
      "type": "VEC3",
      "byteOffset": 12,
      "count": 212
    },
    {
      "bufferView": 5,
      "componentType": 5126,
      "type": "VEC2",
      "byteOffset": 24,
      "count": 212
    },
    {
      "bufferView": 6,
      "componentType": 5125,
      "type": "SCALAR",
      "count": 648
    },
    {
      "bufferView": 7,
      "componentType": 5126,
      "type": "VEC3",
      "count": 212,
      "min": [-4, -5, 19],
      "max": [-1, -1, 25]
    },
    {
      "bufferView": 7,
      "componentType": 5126,
      "type": "VEC3",
      "byteOffset": 12,
      "count": 212
    },
    {
      "bufferView": 7,
      "componentType": 5126,
      "type": "VEC2",
      "byteOffset": 24,
      "count": 212
    },
    {
      "bufferView": 8,
      "componentType": 5125,
      "type": "SCALAR",
      "count": 648
    },
    {
      "bufferView": 9,
      "componentType": 5126,
      "type": "VEC3",
      "count": 212,
      "min": [-1, -5, 19],
      "max": [2, -1, 25]
    },
    {
      "bufferView": 9,
      "componentType": 5126,
      "type": "VEC3",
      "byteOffset": 12,
      "count": 212
    },
    {
      "bufferView": 9,
      "componentType": 5126,
      "type": "VEC2",
      "byteOffset": 24,
      "count": 212
    },
    {
      "bufferView": 10,
      "componentType": 5125,
      "type": "SCALAR",
      "count": 648
    }
  ],
  "asset": {
    "generator": "goxel",
    "version": "2.0"
  },
  "bufferViews": [
    {
      "buffer": 0,
      "byteLength": 242
    },
    {
      "buffer": 1,
      "byteLength": 227440,
      "byteStride": 40
    },
    {
      "buffer": 2,
      "byteLength": 117984
    },
    {
      "buffer": 3,
      "byteLength": 8480,
      "byteStride": 40
    },
    {
      "buffer": 4,
      "byteLength": 2592
    },
    {
      "buffer": 5,
      "byteLength": 8480,
      "byteStride": 40
    },
    {
      "buffer": 6,
      "byteLength": 2592
    },
    {
      "buffer": 7,
      "byteLength": 8480,
      "byteStride": 40
    },
    {
      "buffer": 8,
      "byteLength": 2592
    },
    {
      "buffer": 9,
      "byteLength": 8480,
      "byteStride": 40
    },
    {
      "buffer": 10,
      "byteLength": 2592
    }
  ],
  "buffers": [
    {
      "uri": "data:application/octet-stream;base64,",
      "byteLength": 242
    },
    {
      "uri": "data:application/octet-stream;base64,",
      "byteLength": 227440
    },
    {
      "uri": "data:application/octet-stream;base64,",
      "byteLength": 117984
    },
    {
      "uri": "data:application/octet-stream;base64,",
      "byteLength": 8480
    },
    {
      "uri": "data:application/octet-stream;base64,",
      "byteLength": 2592
    },
    {
      "uri": "data:application/octet-stream;base64,",
      "byteLength": 8480
    },
    {
      "uri": "data:application/octet-stream;base64,",
      "byteLength": 2592
    },
    {
      "uri": "data:application/octet-stream;base64,",
      "byteLength": 8480
    },
    {
      "uri": "data:application/octet-stream;base64,",
      "byteLength": 2592
    },
    {
      "uri": "data:application/octet-stream;base64,",
      "byteLength": 8480
    },
    {
      "uri": "data:application/octet-stream;base64,",
      "byteLength": 2592
    }
  ],
  "images": [
    {
      "bufferView": 0,
      "mimeType": "image/png"
    }
  ],
  "meshes": [
    {
      "primitives": [
        {
          "indices": 3,
          "material": 0,
          "attributes": {
            "POSITION": 0,
            "NORMAL": 1,
            "TEXCOORD_0": 2
          }
        }
      ]
    },
    {
      "primitives": [
        {
          "indices": 7,
          "material": 0,
          "attributes": {
            "POSITION": 4,
            "NORMAL": 5,
            "TEXCOORD_0": 6
          }
        }
      ]
    },
    {
      "primitives": [
        {
          "indices": 11,
          "material": 0,
          "attributes": {
            "POSITION": 8,
            "NORMAL": 9,
            "TEXCOORD_0": 10
          }
        }
      ]
    },
    {
      "primitives": [
        {
          "indices": 15,
          "material": 0,
          "attributes": {
            "POSITION": 12,
            "NORMAL": 13,
            "TEXCOORD_0": 14
          }
        }
      ]
    },
    {
      "primitives": [
        {
          "indices": 19,
          "material": 0,
          "attributes": {
            "POSITION": 16,
            "NORMAL": 17,
            "TEXCOORD_0": 18
          }
        }
      ]
    }
  ],
  "materials": [
    {
      "name": "Material.1",
      "pbrMetallicRoughness": {
        "baseColorTexture": {
          "index": 0
        },
        "metallicFactor": 0.200000003,
        "roughnessFactor": 0.5
      }
    }
  ],
  "nodes": [
    {
      "children": [ 1, 2, 3, 4, 5 ],
      "matrix": [1, 0, 0, 0, 0, 0, -1, 0, 0, 1, 0, 0, 0, 0, 0, 1]
    },
    {
      "mesh": 0,
      "name": "Layer.1"
    },
    {
      "mesh": 1,
      "name": "REDBOOK"
    },
    {
      "mesh": 2,
      "name": "GREENBOOK"
    },
    {
      "mesh": 3,
      "name": "Bluebook"
    },
    {
      "mesh": 4,
      "name": "Black"
    }
  ],
  "scenes": [
    {
      "nodes": [ 0 ]
    }
  ],
  "textures": [
    {
      "source": 0
    }
  ]
}
