{
  "accessors": [
    {
      "bufferView": 1,
      "componentType": 5126,
      "type": "VEC3",
      "count": 1306,
      "min": [-9, -5, 0],
      "max": [7, 5, 7]
    },
    {
      "bufferView": 1,
      "componentType": 5126,
      "type": "VEC3",
      "byteOffset": 12,
      "count": 1306
    },
    {
      "bufferView": 1,
      "componentType": 5126,
      "type": "VEC2",
      "byteOffset": 24,
      "count": 1306
    },
    {
      "bufferView": 2,
      "componentType": 5125,
      "type": "SCALAR",
      "count": 5688
    },
    {
      "bufferView": 3,
      "componentType": 5126,
      "type": "VEC3",
      "count": 1368,
      "min": [-9, -6, 5],
      "max": [7, 5, 12]
    },
    {
      "bufferView": 3,
      "componentType": 5126,
      "type": "VEC3",
      "byteOffset": 12,
      "count": 1368
    },
    {
      "bufferView": 3,
      "componentType": 5126,
      "type": "VEC2",
      "byteOffset": 24,
      "count": 1368
    },
    {
      "bufferView": 4,
      "componentType": 5125,
      "type": "SCALAR",
      "count": 4500
    },
    {
      "bufferView": 5,
      "componentType": 5126,
      "type": "VEC3",
      "count": 3156,
      "min": [-10, -7, 0],
      "max": [8, 6, 13]
    },
    {
      "bufferView": 5,
      "componentType": 5126,
      "type": "VEC3",
      "byteOffset": 12,
      "count": 3156
    },
    {
      "bufferView": 5,
      "componentType": 5126,
      "type": "VEC2",
      "byteOffset": 24,
      "count": 3156
    },
    {
      "bufferView": 6,
      "componentType": 5125,
      "type": "SCALAR",
      "count": 10812
    },
    {
      "bufferView": 7,
      "componentType": 5126,
      "type": "VEC3",
      "count": 3370,
      "min": [-16, -6, 0],
      "max": [16, 6, 16]
    },
    {
      "bufferView": 7,
      "componentType": 5126,
      "type": "VEC3",
      "byteOffset": 12,
      "count": 3370
    },
    {
      "bufferView": 7,
      "componentType": 5126,
      "type": "VEC2",
      "byteOffset": 24,
      "count": 3370
    },
    {
      "bufferView": 8,
      "componentType": 5125,
      "type": "SCALAR",
      "count": 11412
    }
  ],
  "asset": {
    "generator": "goxel",
    "version": "2.0"
  },
  "bufferViews": [
    {
      "buffer": 0,
      "byteLength": 232
    },
    {
      "buffer": 1,
      "byteLength": 52240,
      "byteStride": 40
    },
    {
      "buffer": 2,
      "byteLength": 22752
    },
    {
      "buffer": 3,
      "byteLength": 54720,
      "byteStride": 40
    },
    {
      "buffer": 4,
      "byteLength": 18000
    },
    {
      "buffer": 5,
      "byteLength": 126240,
      "byteStride": 40
    },
    {
      "buffer": 6,
      "byteLength": 43248
    },
    {
      "buffer": 7,
      "byteLength": 134800,
      "byteStride": 40
    },
    {
      "buffer": 8,
      "byteLength": 45648
    }
  ],
  "buffers": [
    {
      "uri": "data:application/octet-stream;base64,",
      "byteLength": 232
    },
    {
      "uri": "data:application/octet-stream;base64,",
      "byteLength": 52240
    },
    {
      "uri": "data:application/octet-stream;base64,",
      "byteLength": 22752
    },
    {
      "uri": "data:application/octet-stream;base64,",
      "byteLength": 54720
    },
    {
      "uri": "data:application/octet-stream;base64,",
      "byteLength": 18000
    },
    {
      "uri": "data:application/octet-stream;base64,",
      "byteLength": 126240
    },
    {
      "uri": "data:application/octet-stream;base64,",
      "byteLength": 43248
    },
    {
      "uri": "data:application/octet-stream;base64,",
      "byteLength": 134800
    },
    {
      "uri": "data:application/octet-stream;base64,",
      "byteLength": 45648
    }
  ],
  "images": [
    {
      "bufferView": 0,
      "mimeType": "image/png"
    }
  ],
  "meshes": [
    {
      "primitives": [
        {
          "indices": 3,
          "material": 0,
          "attributes": {
            "POSITION": 0,
            "NORMAL": 1,
            "TEXCOORD_0": 2
          }
        }
      ]
    },
    {
      "primitives": [
        {
          "indices": 7,
          "material": 0,
          "attributes": {
            "POSITION": 4,
            "NORMAL": 5,
            "TEXCOORD_0": 6
          }
        }
      ]
    },
    {
      "primitives": [
        {
          "indices": 11,
          "material": 0,
          "attributes": {
            "POSITION": 8,
            "NORMAL": 9,
            "TEXCOORD_0": 10
          }
        }
      ]
    },
    {
      "primitives": [
        {
          "indices": 15,
          "material": 0,
          "attributes": {
            "POSITION": 12,
            "NORMAL": 13,
            "TEXCOORD_0": 14
          }
        }
      ]
    }
  ],
  "materials": [
    {
      "name": "Material.1",
      "pbrMetallicRoughness": {
        "baseColorTexture": {
          "index": 0
        },
        "metallicFactor": 0.200000003,
        "roughnessFactor": 0.5
      }
    }
  ],
  "nodes": [
    {
      "children": [ 1, 2, 3, 4 ],
      "matrix": [1, 0, 0, 0, 0, 0, -1, 0, 0, 1, 0, 0, 0, 0, 0, 1]
    },
    {
      "mesh": 0,
      "name": "Layer.1"
    },
    {
      "mesh": 1,
      "name": "Layer.2"
    },
    {
      "mesh": 2,
      "name": "Layer.3"
    },
    {
      "mesh": 3,
      "name": "Layer.4"
    }
  ],
  "scenes": [
    {
      "nodes": [ 0 ]
    }
  ],
  "textures": [
    {
      "source": 0
    }
  ]
}
