{
  "accessors": [
    {
      "bufferView": 1,
      "componentType": 5126,
      "type": "VEC3",
      "count": 4861,
      "min": [-7, -15, 0],
      "max": [-2, 15, 32]
    },
    {
      "bufferView": 1,
      "componentType": 5126,
      "type": "VEC3",
      "byteOffset": 12,
      "count": 4861
    },
    {
      "bufferView": 1,
      "componentType": 5126,
      "type": "VEC2",
      "byteOffset": 24,
      "count": 4861
    },
    {
      "bufferView": 2,
      "componentType": 5125,
      "type": "SCALAR",
      "count": 9984
    },
    {
      "bufferView": 3,
      "componentType": 5126,
      "type": "VEC3",
      "count": 2107,
      "min": [-7, -11, 0],
      "max": [-2, 11, 30]
    },
    {
      "bufferView": 3,
      "componentType": 5126,
      "type": "VEC3",
      "byteOffset": 12,
      "count": 2107
    },
    {
      "bufferView": 3,
      "componentType": 5126,
      "type": "VEC2",
      "byteOffset": 24,
      "count": 2107
    },
    {
      "bufferView": 4,
      "componentType": 5125,
      "type": "SCALAR",
      "count": 9396
    },
    {
      "bufferView": 5,
      "componentType": 5126,
      "type": "VEC3",
      "count": 72,
      "min": [-2, 8, 12],
      "max": [0, 9, 16]
    },
    {
      "bufferView": 5,
      "componentType": 5126,
      "type": "VEC3",
      "byteOffset": 12,
      "count": 72
    },
    {
      "bufferView": 5,
      "componentType": 5126,
      "type": "VEC2",
      "byteOffset": 24,
      "count": 72
    },
    {
      "bufferView": 6,
      "componentType": 5125,
      "type": "SCALAR",
      "count": 156
    }
  ],
  "asset": {
    "generator": "goxel",
    "version": "2.0"
  },
  "bufferViews": [
    {
      "buffer": 0,
      "byteLength": 493
    },
    {
      "buffer": 1,
      "byteLength": 194440,
      "byteStride": 40
    },
    {
      "buffer": 2,
      "byteLength": 39936
    },
    {
      "buffer": 3,
      "byteLength": 84280,
      "byteStride": 40
    },
    {
      "buffer": 4,
      "byteLength": 37584
    },
    {
      "buffer": 5,
      "byteLength": 2880,
      "byteStride": 40
    },
    {
      "buffer": 6,
      "byteLength": 624
    }
  ],
  "buffers": [
    {
      "uri": "data:application/octet-stream;base64,",
      "byteLength": 493
    },
    {
      "uri": "data:application/octet-stream;base64,",
      "byteLength": 194440
    },
    {
      "uri": "data:application/octet-stream;base64,",
      "byteLength": 39936
    },
    {
      "uri": "data:application/octet-stream;base64,",
      "byteLength": 84280
    },
    {
      "uri": "data:application/octet-stream;base64,",
      "byteLength": 37584
    },
    {
      "uri": "data:application/octet-stream;base64,",
      "byteLength": 2880
    },
    {
      "uri": "data:application/octet-stream;base64,",
      "byteLength": 624
    }
  ],
  "images": [
    {
      "bufferView": 0,
      "mimeType": "image/png"
    }
  ],
  "meshes": [
    {
      "primitives": [
        {
          "indices": 3,
          "material": 0,
          "attributes": {
            "POSITION": 0,
            "NORMAL": 1,
            "TEXCOORD_0": 2
          }
        }
      ]
    },
    {
      "primitives": [
        {
          "indices": 7,
          "material": 0,
          "attributes": {
            "POSITION": 4,
            "NORMAL": 5,
            "TEXCOORD_0": 6
          }
        }
      ]
    },
    {
      "primitives": [
        {
          "indices": 11,
          "material": 0,
          "attributes": {
            "POSITION": 8,
            "NORMAL": 9,
            "TEXCOORD_0": 10
          }
        }
      ]
    }
  ],
  "materials": [
    {
      "name": "Material.1",
      "pbrMetallicRoughness": {
        "baseColorTexture": {
          "index": 0
        },
        "metallicFactor": 0.200000003,
        "roughnessFactor": 0.5
      }
    }
  ],
  "nodes": [
    {
      "children": [ 1, 2, 3 ],
      "matrix": [1, 0, 0, 0, 0, 0, -1, 0, 0, 1, 0, 0, 0, 0, 0, 1]
    },
    {
      "mesh": 0,
      "name": "Layer.1"
    },
    {
      "mesh": 1,
      "name": "Layer.2"
    },
    {
      "mesh": 2,
      "name": "Layer.3"
    }
  ],
  "scenes": [
    {
      "nodes": [ 0 ]
    }
  ],
  "textures": [
    {
      "source": 0
    }
  ]
}
