{
  "accessors": [
    {
      "bufferView": 1,
      "componentType": 5126,
      "type": "VEC3",
      "count": 492,
      "min": [-10, -2, 0],
      "max": [6, -1, 12]
    },
    {
      "bufferView": 1,
      "componentType": 5126,
      "type": "VEC3",
      "byteOffset": 12,
      "count": 492
    },
    {
      "bufferView": 1,
      "componentType": 5126,
      "type": "VEC2",
      "byteOffset": 24,
      "count": 492
    },
    {
      "bufferView": 2,
      "componentType": 5125,
      "type": "SCALAR",
      "count": 1980
    },
    {
      "bufferView": 3,
      "componentType": 5126,
      "type": "VEC3",
      "count": 456,
      "min": [-6, -3, 3],
      "max": [4, 0, 11]
    },
    {
      "bufferView": 3,
      "componentType": 5126,
      "type": "VEC3",
      "byteOffset": 12,
      "count": 456
    },
    {
      "bufferView": 3,
      "componentType": 5126,
      "type": "VEC2",
      "byteOffset": 24,
      "count": 456
    },
    {
      "bufferView": 4,
      "componentType": 5125,
      "type": "SCALAR",
      "count": 912
    },
    {
      "bufferView": 5,
      "componentType": 5126,
      "type": "VEC3",
      "count": 280,
      "min": [-5, -3, 5],
      "max": [3, 0, 10]
    },
    {
      "bufferView": 5,
      "componentType": 5126,
      "type": "VEC3",
      "byteOffset": 12,
      "count": 280
    },
    {
      "bufferView": 5,
      "componentType": 5126,
      "type": "VEC2",
      "byteOffset": 24,
      "count": 280
    },
    {
      "bufferView": 6,
      "componentType": 5125,
      "type": "SCALAR",
      "count": 624
    },
    {
      "bufferView": 7,
      "componentType": 5126,
      "type": "VEC3",
      "count": 629,
      "min": [-7, -4, 3],
      "max": [4, 0, 12]
    },
    {
      "bufferView": 7,
      "componentType": 5126,
      "type": "VEC3",
      "byteOffset": 12,
      "count": 629
    },
    {
      "bufferView": 7,
      "componentType": 5126,
      "type": "VEC2",
      "byteOffset": 24,
      "count": 629
    },
    {
      "bufferView": 8,
      "componentType": 5125,
      "type": "SCALAR",
      "count": 1248
    },
    {
      "bufferView": 9,
      "componentType": 5126,
      "type": "VEC3",
      "count": 424,
      "min": [-5, -3, 4],
      "max": [3, 0, 11]
    },
    {
      "bufferView": 9,
      "componentType": 5126,
      "type": "VEC3",
      "byteOffset": 12,
      "count": 424
    },
    {
      "bufferView": 9,
      "componentType": 5126,
      "type": "VEC2",
      "byteOffset": 24,
      "count": 424
    },
    {
      "bufferView": 10,
      "componentType": 5125,
      "type": "SCALAR",
      "count": 888
    },
    {
      "bufferView": 11,
      "componentType": 5126,
      "type": "VEC3",
      "count": 500,
      "min": [-5, -3, 3],
      "max": [5, 0, 11]
    },
    {
      "bufferView": 11,
      "componentType": 5126,
      "type": "VEC3",
      "byteOffset": 12,
      "count": 500
    },
    {
      "bufferView": 11,
      "componentType": 5126,
      "type": "VEC2",
      "byteOffset": 24,
      "count": 500
    },
    {
      "bufferView": 12,
      "componentType": 5125,
      "type": "SCALAR",
      "count": 1032
    },
    {
      "bufferView": 13,
      "componentType": 5126,
      "type": "VEC3",
      "count": 120,
      "min": [-7, -3, 7],
      "max": [5, -2, 8]
    },
    {
      "bufferView": 13,
      "componentType": 5126,
      "type": "VEC3",
      "byteOffset": 12,
      "count": 120
    },
    {
      "bufferView": 13,
      "componentType": 5126,
      "type": "VEC2",
      "byteOffset": 24,
      "count": 120
    },
    {
      "bufferView": 14,
      "componentType": 5125,
      "type": "SCALAR",
      "count": 180
    }
  ],
  "asset": {
    "generator": "goxel",
    "version": "2.0"
  },
  "bufferViews": [
    {
      "buffer": 0,
      "byteLength": 212
    },
    {
      "buffer": 1,
      "byteLength": 19680,
      "byteStride": 40
    },
    {
      "buffer": 2,
      "byteLength": 7920
    },
    {
      "buffer": 3,
      "byteLength": 18240,
      "byteStride": 40
    },
    {
      "buffer": 4,
      "byteLength": 3648
    },
    {
      "buffer": 5,
      "byteLength": 11200,
      "byteStride": 40
    },
    {
      "buffer": 6,
      "byteLength": 2496
    },
    {
      "buffer": 7,
      "byteLength": 25160,
      "byteStride": 40
    },
    {
      "buffer": 8,
      "byteLength": 4992
    },
    {
      "buffer": 9,
      "byteLength": 16960,
      "byteStride": 40
    },
    {
      "buffer": 10,
      "byteLength": 3552
    },
    {
      "buffer": 11,
      "byteLength": 20000,
      "byteStride": 40
    },
    {
      "buffer": 12,
      "byteLength": 4128
    },
    {
      "buffer": 13,
      "byteLength": 4800,
      "byteStride": 40
    },
    {
      "buffer": 14,
      "byteLength": 720
    }
  ],
  "buffers": [
    {
      "uri": "data:application/octet-stream;base64,",
      "byteLength": 212
    },
    {
      "uri": "data:application/octet-stream;base64,",
      "byteLength": 19680
    },
    {
      "uri": "data:application/octet-stream;base64,",
      "byteLength": 7920
    },
    {
      "uri": "data:application/octet-stream;base64,",
      "byteLength": 18240
    },
    {
      "uri": "data:application/octet-stream;base64,",
      "byteLength": 3648
    },
    {
      "uri": "data:application/octet-stream;base64,",
      "byteLength": 11200
    },
    {
      "uri": "data:application/octet-stream;base64,",
      "byteLength": 2496
    },
    {
      "uri": "data:application/octet-stream;base64,",
      "byteLength": 25160
    },
    {
      "uri": "data:application/octet-stream;base64,",
      "byteLength": 4992
    },
    {
      "uri": "data:application/octet-stream;base64,",
      "byteLength": 16960
    },
    {
      "uri": "data:application/octet-stream;base64,",
      "byteLength": 3552
    },
    {
      "uri": "data:application/octet-stream;base64,",
      "byteLength": 20000
    },
    {
      "uri": "data:application/octet-stream;base64,",
      "byteLength": 4128
    },
    {
      "uri": "data:application/octet-stream;base64,",
      "byteLength": 4800
    },
    {
      "uri": "data:application/octet-stream;base64,",
      "byteLength": 720
    }
  ],
  "images": [
    {
      "bufferView": 0,
      "mimeType": "image/png"
    }
  ],
  "meshes": [
    {
      "primitives": [
        {
          "indices": 3,
          "material": 0,
          "attributes": {
            "POSITION": 0,
            "NORMAL": 1,
            "TEXCOORD_0": 2
          }
        }
      ]
    },
    {
      "primitives": [
        {
          "indices": 7,
          "material": 0,
          "attributes": {
            "POSITION": 4,
            "NORMAL": 5,
            "TEXCOORD_0": 6
          }
        }
      ]
    },
    {
      "primitives": [
        {
          "indices": 11,
          "material": 0,
          "attributes": {
            "POSITION": 8,
            "NORMAL": 9,
            "TEXCOORD_0": 10
          }
        }
      ]
    },
    {
      "primitives": [
        {
          "indices": 15,
          "material": 0,
          "attributes": {
            "POSITION": 12,
            "NORMAL": 13,
            "TEXCOORD_0": 14
          }
        }
      ]
    },
    {
      "primitives": [
        {
          "indices": 19,
          "material": 0,
          "attributes": {
            "POSITION": 16,
            "NORMAL": 17,
            "TEXCOORD_0": 18
          }
        }
      ]
    },
    {
      "primitives": [
        {
          "indices": 23,
          "material": 0,
          "attributes": {
            "POSITION": 20,
            "NORMAL": 21,
            "TEXCOORD_0": 22
          }
        }
      ]
    },
    {
      "primitives": [
        {
          "indices": 27,
          "material": 0,
          "attributes": {
            "POSITION": 24,
            "NORMAL": 25,
            "TEXCOORD_0": 26
          }
        }
      ]
    }
  ],
  "materials": [
    {
      "name": "Material.1",
      "pbrMetallicRoughness": {
        "baseColorTexture": {
          "index": 0
        },
        "metallicFactor": 0.200000003,
        "roughnessFactor": 0.5
      }
    }
  ],
  "nodes": [
    {
      "children": [ 1, 2, 3, 4, 5, 6, 7 ],
      "matrix": [1, 0, 0, 0, 0, 0, -1, 0, 0, 1, 0, 0, 0, 0, 0, 1]
    },
    {
      "mesh": 0,
      "name": "Mood"
    },
    {
      "mesh": 1,
      "name": "Happy"
    },
    {
      "mesh": 2,
      "name": "Indifferent"
    },
    {
      "mesh": 3,
      "name": "Mad"
    },
    {
      "mesh": 4,
      "name": "upset"
    },
    {
      "mesh": 5,
      "name": "Sadness"
    },
    {
      "mesh": 6,
      "name": "talk"
    }
  ],
  "scenes": [
    {
      "nodes": [ 0 ]
    }
  ],
  "textures": [
    {
      "source": 0
    }
  ]
}
