{
  "accessors": [
    {
      "bufferView": 1,
      "componentType": 5126,
      "type": "VEC3",
      "count": 4536,
      "min": [-16, -12, 1],
      "max": [9, 8, 17]
    },
    {
      "bufferView": 1,
      "componentType": 5126,
      "type": "VEC3",
      "byteOffset": 12,
      "count": 4536
    },
    {
      "bufferView": 1,
      "componentType": 5126,
      "type": "VEC2",
      "byteOffset": 24,
      "count": 4536
    },
    {
      "bufferView": 2,
      "componentType": 5125,
      "type": "SCALAR",
      "count": 11772
    },
    {
      "bufferView": 3,
      "componentType": 5126,
      "type": "VEC3",
      "count": 3852,
      "min": [-15, -13, 11],
      "max": [8, 8, 23]
    },
    {
      "bufferView": 3,
      "componentType": 5126,
      "type": "VEC3",
      "byteOffset": 12,
      "count": 3852
    },
    {
      "bufferView": 3,
      "componentType": 5126,
      "type": "VEC2",
      "byteOffset": 24,
      "count": 3852
    },
    {
      "bufferView": 4,
      "componentType": 5125,
      "type": "SCALAR",
      "count": 10020
    },
    {
      "bufferView": 5,
      "componentType": 5126,
      "type": "VEC3",
      "count": 4035,
      "min": [-15, -16, 12],
      "max": [8, 8, 21]
    },
    {
      "bufferView": 5,
      "componentType": 5126,
      "type": "VEC3",
      "byteOffset": 12,
      "count": 4035
    },
    {
      "bufferView": 5,
      "componentType": 5126,
      "type": "VEC2",
      "byteOffset": 24,
      "count": 4035
    },
    {
      "bufferView": 6,
      "componentType": 5125,
      "type": "SCALAR",
      "count": 9660
    },
    {
      "bufferView": 7,
      "componentType": 5126,
      "type": "VEC3",
      "count": 3648,
      "min": [-15, -11, 13],
      "max": [8, 13, 25]
    },
    {
      "bufferView": 7,
      "componentType": 5126,
      "type": "VEC3",
      "byteOffset": 12,
      "count": 3648
    },
    {
      "bufferView": 7,
      "componentType": 5126,
      "type": "VEC2",
      "byteOffset": 24,
      "count": 3648
    },
    {
      "bufferView": 8,
      "componentType": 5125,
      "type": "SCALAR",
      "count": 9084
    },
    {
      "bufferView": 9,
      "componentType": 5126,
      "type": "VEC3",
      "count": 1329,
      "min": [-14, -10, 14],
      "max": [7, 7, 18]
    },
    {
      "bufferView": 9,
      "componentType": 5126,
      "type": "VEC3",
      "byteOffset": 12,
      "count": 1329
    },
    {
      "bufferView": 9,
      "componentType": 5126,
      "type": "VEC2",
      "byteOffset": 24,
      "count": 1329
    },
    {
      "bufferView": 10,
      "componentType": 5125,
      "type": "SCALAR",
      "count": 3444
    },
    {
      "bufferView": 11,
      "componentType": 5126,
      "type": "VEC3",
      "count": 108,
      "min": [-7, 7, 5],
      "max": [1, 8, 7]
    },
    {
      "bufferView": 11,
      "componentType": 5126,
      "type": "VEC3",
      "byteOffset": 12,
      "count": 108
    },
    {
      "bufferView": 11,
      "componentType": 5126,
      "type": "VEC2",
      "byteOffset": 24,
      "count": 108
    },
    {
      "bufferView": 12,
      "componentType": 5125,
      "type": "SCALAR",
      "count": 228
    },
    {
      "bufferView": 13,
      "componentType": 5126,
      "type": "VEC3",
      "count": 1415,
      "min": [-16, -12, 5],
      "max": [9, 10, 15]
    },
    {
      "bufferView": 13,
      "componentType": 5126,
      "type": "VEC3",
      "byteOffset": 12,
      "count": 1415
    },
    {
      "bufferView": 13,
      "componentType": 5126,
      "type": "VEC2",
      "byteOffset": 24,
      "count": 1415
    },
    {
      "bufferView": 14,
      "componentType": 5125,
      "type": "SCALAR",
      "count": 3720
    },
    {
      "bufferView": 15,
      "componentType": 5126,
      "type": "VEC3",
      "count": 3440,
      "min": [-14, -15, 14],
      "max": [7, 7, 24]
    },
    {
      "bufferView": 15,
      "componentType": 5126,
      "type": "VEC3",
      "byteOffset": 12,
      "count": 3440
    },
    {
      "bufferView": 15,
      "componentType": 5126,
      "type": "VEC2",
      "byteOffset": 24,
      "count": 3440
    },
    {
      "bufferView": 16,
      "componentType": 5125,
      "type": "SCALAR",
      "count": 8700
    },
    {
      "bufferView": 17,
      "componentType": 5126,
      "type": "VEC3",
      "count": 2607,
      "min": [-15, -11, 14],
      "max": [8, 8, 24]
    },
    {
      "bufferView": 17,
      "componentType": 5126,
      "type": "VEC3",
      "byteOffset": 12,
      "count": 2607
    },
    {
      "bufferView": 17,
      "componentType": 5126,
      "type": "VEC2",
      "byteOffset": 24,
      "count": 2607
    },
    {
      "bufferView": 18,
      "componentType": 5125,
      "type": "SCALAR",
      "count": 8232
    }
  ],
  "asset": {
    "generator": "goxel",
    "version": "2.0"
  },
  "bufferViews": [
    {
      "buffer": 0,
      "byteLength": 343
    },
    {
      "buffer": 1,
      "byteLength": 181440,
      "byteStride": 40
    },
    {
      "buffer": 2,
      "byteLength": 47088
    },
    {
      "buffer": 3,
      "byteLength": 154080,
      "byteStride": 40
    },
    {
      "buffer": 4,
      "byteLength": 40080
    },
    {
      "buffer": 5,
      "byteLength": 161400,
      "byteStride": 40
    },
    {
      "buffer": 6,
      "byteLength": 38640
    },
    {
      "buffer": 7,
      "byteLength": 145920,
      "byteStride": 40
    },
    {
      "buffer": 8,
      "byteLength": 36336
    },
    {
      "buffer": 9,
      "byteLength": 53160,
      "byteStride": 40
    },
    {
      "buffer": 10,
      "byteLength": 13776
    },
    {
      "buffer": 11,
      "byteLength": 4320,
      "byteStride": 40
    },
    {
      "buffer": 12,
      "byteLength": 912
    },
    {
      "buffer": 13,
      "byteLength": 56600,
      "byteStride": 40
    },
    {
      "buffer": 14,
      "byteLength": 14880
    },
    {
      "buffer": 15,
      "byteLength": 137600,
      "byteStride": 40
    },
    {
      "buffer": 16,
      "byteLength": 34800
    },
    {
      "buffer": 17,
      "byteLength": 104280,
      "byteStride": 40
    },
    {
      "buffer": 18,
      "byteLength": 32928
    }
  ],
  "buffers": [
    {
      "uri": "data:application/octet-stream;base64,",
      "byteLength": 343
    },
    {
      "uri": "data:application/octet-stream;base64,",
      "byteLength": 181440
    },
    {
      "uri": "data:application/octet-stream;base64,",
      "byteLength": 47088
    },
    {
      "uri": "data:application/octet-stream;base64,",
      "byteLength": 154080
    },
    {
      "uri": "data:application/octet-stream;base64,",
      "byteLength": 40080
    },
    {
      "uri": "data:application/octet-stream;base64,",
      "byteLength": 161400
    },
    {
      "uri": "data:application/octet-stream;base64,",
      "byteLength": 38640
    },
    {
      "uri": "data:application/octet-stream;base64,",
      "byteLength": 145920
    },
    {
      "uri": "data:application/octet-stream;base64,",
      "byteLength": 36336
    },
    {
      "uri": "data:application/octet-stream;base64,",
      "byteLength": 53160
    },
    {
      "uri": "data:application/octet-stream;base64,",
      "byteLength": 13776
    },
    {
      "uri": "data:application/octet-stream;base64,",
      "byteLength": 4320
    },
    {
      "uri": "data:application/octet-stream;base64,",
      "byteLength": 912
    },
    {
      "uri": "data:application/octet-stream;base64,",
      "byteLength": 56600
    },
    {
      "uri": "data:application/octet-stream;base64,",
      "byteLength": 14880
    },
    {
      "uri": "data:application/octet-stream;base64,",
      "byteLength": 137600
    },
    {
      "uri": "data:application/octet-stream;base64,",
      "byteLength": 34800
    },
    {
      "uri": "data:application/octet-stream;base64,",
      "byteLength": 104280
    },
    {
      "uri": "data:application/octet-stream;base64,",
      "byteLength": 32928
    }
  ],
  "images": [
    {
      "bufferView": 0,
      "mimeType": "image/png"
    }
  ],
  "meshes": [
    {
      "primitives": [
        {
          "indices": 3,
          "material": 0,
          "attributes": {
            "POSITION": 0,
            "NORMAL": 1,
            "TEXCOORD_0": 2
          }
        }
      ]
    },
    {
      "primitives": [
        {
          "indices": 7,
          "material": 0,
          "attributes": {
            "POSITION": 4,
            "NORMAL": 5,
            "TEXCOORD_0": 6
          }
        }
      ]
    },
    {
      "primitives": [
        {
          "indices": 11,
          "material": 0,
          "attributes": {
            "POSITION": 8,
            "NORMAL": 9,
            "TEXCOORD_0": 10
          }
        }
      ]
    },
    {
      "primitives": [
        {
          "indices": 15,
          "material": 0,
          "attributes": {
            "POSITION": 12,
            "NORMAL": 13,
            "TEXCOORD_0": 14
          }
        }
      ]
    },
    {
      "primitives": [
        {
          "indices": 19,
          "material": 0,
          "attributes": {
            "POSITION": 16,
            "NORMAL": 17,
            "TEXCOORD_0": 18
          }
        }
      ]
    },
    {
      "primitives": [
        {
          "indices": 23,
          "material": 0,
          "attributes": {
            "POSITION": 20,
            "NORMAL": 21,
            "TEXCOORD_0": 22
          }
        }
      ]
    },
    {
      "primitives": [
        {
          "indices": 27,
          "material": 0,
          "attributes": {
            "POSITION": 24,
            "NORMAL": 25,
            "TEXCOORD_0": 26
          }
        }
      ]
    },
    {
      "primitives": [
        {
          "indices": 31,
          "material": 0,
          "attributes": {
            "POSITION": 28,
            "NORMAL": 29,
            "TEXCOORD_0": 30
          }
        }
      ]
    },
    {
      "primitives": [
        {
          "indices": 35,
          "material": 0,
          "attributes": {
            "POSITION": 32,
            "NORMAL": 33,
            "TEXCOORD_0": 34
          }
        }
      ]
    }
  ],
  "materials": [
    {
      "name": "Material.1",
      "pbrMetallicRoughness": {
        "baseColorTexture": {
          "index": 0
        },
        "metallicFactor": 0.200000003,
        "roughnessFactor": 0.5
      }
    }
  ],
  "nodes": [
    {
      "children": [ 1, 2, 3, 4, 5, 6, 7, 8, 9 ],
      "matrix": [1, 0, 0, 0, 0, 0, -1, 0, 0, 1, 0, 0, 0, 0, 0, 1]
    },
    {
      "mesh": 0,
      "name": "Layer.1"
    },
    {
      "mesh": 1,
      "name": "Layer.2"
    },
    {
      "mesh": 2,
      "name": "Layer.3"
    },
    {
      "mesh": 3,
      "name": "Layer.4"
    },
    {
      "mesh": 4,
      "name": "Layer.5"
    },
    {
      "mesh": 5,
      "name": "Layer.6"
    },
    {
      "mesh": 6,
      "name": "Layer.7"
    },
    {
      "mesh": 7,
      "name": "Layer.8"
    },
    {
      "mesh": 8,
      "name": "Layer.9"
    }
  ],
  "scenes": [
    {
      "nodes": [ 0 ]
    }
  ],
  "textures": [
    {
      "source": 0
    }
  ]
}
