{
  "accessors": [
    {
      "bufferView": 1,
      "componentType": 5126,
      "type": "VEC3",
      "count": 1050,
      "min": [-4, -8, 9],
      "max": [5, 6, 23]
    },
    {
      "bufferView": 1,
      "componentType": 5126,
      "type": "VEC3",
      "byteOffset": 12,
      "count": 1050
    },
    {
      "bufferView": 1,
      "componentType": 5126,
      "type": "VEC2",
      "byteOffset": 24,
      "count": 1050
    },
    {
      "bufferView": 2,
      "componentType": 5125,
      "type": "SCALAR",
      "count": 5376
    },
    {
      "bufferView": 3,
      "componentType": 5126,
      "type": "VEC3",
      "count": 352,
      "min": [-15, -5, 19],
      "max": [-4, 5, 20]
    },
    {
      "bufferView": 3,
      "componentType": 5126,
      "type": "VEC3",
      "byteOffset": 12,
      "count": 352
    },
    {
      "bufferView": 3,
      "componentType": 5126,
      "type": "VEC2",
      "byteOffset": 24,
      "count": 352
    },
    {
      "bufferView": 4,
      "componentType": 5125,
      "type": "SCALAR",
      "count": 1356
    },
    {
      "bufferView": 5,
      "componentType": 5126,
      "type": "VEC3",
      "count": 346,
      "min": [5, -6, 20],
      "max": [16, 4, 21]
    },
    {
      "bufferView": 5,
      "componentType": 5126,
      "type": "VEC3",
      "byteOffset": 12,
      "count": 346
    },
    {
      "bufferView": 5,
      "componentType": 5126,
      "type": "VEC2",
      "byteOffset": 24,
      "count": 346
    },
    {
      "bufferView": 6,
      "componentType": 5125,
      "type": "SCALAR",
      "count": 1344
    },
    {
      "bufferView": 7,
      "componentType": 5126,
      "type": "VEC3",
      "count": 1212,
      "min": [-6, -9, 22],
      "max": [7, 7, 32]
    },
    {
      "bufferView": 7,
      "componentType": 5126,
      "type": "VEC3",
      "byteOffset": 12,
      "count": 1212
    },
    {
      "bufferView": 7,
      "componentType": 5126,
      "type": "VEC2",
      "byteOffset": 24,
      "count": 1212
    },
    {
      "bufferView": 8,
      "componentType": 5125,
      "type": "SCALAR",
      "count": 5976
    }
  ],
  "asset": {
    "generator": "goxel",
    "version": "2.0"
  },
  "bufferViews": [
    {
      "buffer": 0,
      "byteLength": 227
    },
    {
      "buffer": 1,
      "byteLength": 42000,
      "byteStride": 40
    },
    {
      "buffer": 2,
      "byteLength": 21504
    },
    {
      "buffer": 3,
      "byteLength": 14080,
      "byteStride": 40
    },
    {
      "buffer": 4,
      "byteLength": 5424
    },
    {
      "buffer": 5,
      "byteLength": 13840,
      "byteStride": 40
    },
    {
      "buffer": 6,
      "byteLength": 5376
    },
    {
      "buffer": 7,
      "byteLength": 48480,
      "byteStride": 40
    },
    {
      "buffer": 8,
      "byteLength": 23904
    }
  ],
  "buffers": [
    {
      "uri": "data:application/octet-stream;base64,",
      "byteLength": 227
    },
    {
      "uri": "data:application/octet-stream;base64,",
      "byteLength": 42000
    },
    {
      "uri": "data:application/octet-stream;base64,",
      "byteLength": 21504
    },
    {
      "uri": "data:application/octet-stream;base64,",
      "byteLength": 14080
    },
    {
      "uri": "data:application/octet-stream;base64,",
      "byteLength": 5424
    },
    {
      "uri": "data:application/octet-stream;base64,",
      "byteLength": 13840
    },
    {
      "uri": "data:application/octet-stream;base64,",
      "byteLength": 5376
    },
    {
      "uri": "data:application/octet-stream;base64,",
      "byteLength": 48480
    },
    {
      "uri": "data:application/octet-stream;base64,",
      "byteLength": 23904
    }
  ],
  "images": [
    {
      "bufferView": 0,
      "mimeType": "image/png"
    }
  ],
  "meshes": [
    {
      "primitives": [
        {
          "indices": 3,
          "material": 0,
          "attributes": {
            "POSITION": 0,
            "NORMAL": 1,
            "TEXCOORD_0": 2
          }
        }
      ]
    },
    {
      "primitives": [
        {
          "indices": 7,
          "material": 0,
          "attributes": {
            "POSITION": 4,
            "NORMAL": 5,
            "TEXCOORD_0": 6
          }
        }
      ]
    },
    {
      "primitives": [
        {
          "indices": 11,
          "material": 0,
          "attributes": {
            "POSITION": 8,
            "NORMAL": 9,
            "TEXCOORD_0": 10
          }
        }
      ]
    },
    {
      "primitives": [
        {
          "indices": 15,
          "material": 0,
          "attributes": {
            "POSITION": 12,
            "NORMAL": 13,
            "TEXCOORD_0": 14
          }
        }
      ]
    }
  ],
  "materials": [
    {
      "name": "Material.1",
      "pbrMetallicRoughness": {
        "baseColorTexture": {
          "index": 0
        },
        "metallicFactor": 0.200000003,
        "roughnessFactor": 0.5
      }
    }
  ],
  "nodes": [
    {
      "children": [ 1, 2, 3, 4 ],
      "matrix": [1, 0, 0, 0, 0, 0, -1, 0, 0, 1, 0, 0, 0, 0, 0, 1]
    },
    {
      "mesh": 0,
      "name": "Body"
    },
    {
      "mesh": 1,
      "name": "Left Wing"
    },
    {
      "mesh": 2,
      "name": "Right Wing"
    },
    {
      "mesh": 3,
      "name": "Head"
    }
  ],
  "scenes": [
    {
      "nodes": [ 0 ]
    }
  ],
  "textures": [
    {
      "source": 0
    }
  ]
}
