{
  "accessors": [
    {
      "bufferView": 1,
      "componentType": 5126,
      "type": "VEC3",
      "count": 5482,
      "min": [-12, -11, 0],
      "max": [10, 13, 16]
    },
    {
      "bufferView": 1,
      "componentType": 5126,
      "type": "VEC3",
      "byteOffset": 12,
      "count": 5482
    },
    {
      "bufferView": 1,
      "componentType": 5126,
      "type": "VEC2",
      "byteOffset": 24,
      "count": 5482
    },
    {
      "bufferView": 2,
      "componentType": 5125,
      "type": "SCALAR",
      "count": 16992
    },
    {
      "bufferView": 3,
      "componentType": 5126,
      "type": "VEC3",
      "count": 376,
      "min": [-3, 1, 4],
      "max": [6, 8, 13]
    },
    {
      "bufferView": 3,
      "componentType": 5126,
      "type": "VEC3",
      "byteOffset": 12,
      "count": 376
    },
    {
      "bufferView": 3,
      "componentType": 5126,
      "type": "VEC2",
      "byteOffset": 24,
      "count": 376
    },
    {
      "bufferView": 4,
      "componentType": 5125,
      "type": "SCALAR",
      "count": 816
    }
  ],
  "asset": {
    "generator": "goxel",
    "version": "2.0"
  },
  "bufferViews": [
    {
      "buffer": 0,
      "byteLength": 250
    },
    {
      "buffer": 1,
      "byteLength": 219280,
      "byteStride": 40
    },
    {
      "buffer": 2,
      "byteLength": 67968
    },
    {
      "buffer": 3,
      "byteLength": 15040,
      "byteStride": 40
    },
    {
      "buffer": 4,
      "byteLength": 3264
    }
  ],
  "buffers": [
    {
      "uri": "data:application/octet-stream;base64,",
      "byteLength": 250
    },
    {
      "uri": "data:application/octet-stream;base64,",
      "byteLength": 219280
    },
    {
      "uri": "data:application/octet-stream;base64,",
      "byteLength": 67968
    },
    {
      "uri": "data:application/octet-stream;base64,",
      "byteLength": 15040
    },
    {
      "uri": "data:application/octet-stream;base64,",
      "byteLength": 3264
    }
  ],
  "images": [
    {
      "bufferView": 0,
      "mimeType": "image/png"
    }
  ],
  "meshes": [
    {
      "primitives": [
        {
          "indices": 3,
          "material": 0,
          "attributes": {
            "POSITION": 0,
            "NORMAL": 1,
            "TEXCOORD_0": 2
          }
        }
      ]
    },
    {
      "primitives": [
        {
          "indices": 7,
          "material": 0,
          "attributes": {
            "POSITION": 4,
            "NORMAL": 5,
            "TEXCOORD_0": 6
          }
        }
      ]
    }
  ],
  "materials": [
    {
      "name": "Material.1",
      "pbrMetallicRoughness": {
        "baseColorTexture": {
          "index": 0
        },
        "metallicFactor": 0.200000003,
        "roughnessFactor": 0.5
      }
    }
  ],
  "nodes": [
    {
      "children": [ 1, 2 ],
      "matrix": [1, 0, 0, 0, 0, 0, -1, 0, 0, 1, 0, 0, 0, 0, 0, 1]
    },
    {
      "mesh": 0,
      "name": "Layer.1"
    },
    {
      "mesh": 1,
      "name": "Layer.2"
    }
  ],
  "scenes": [
    {
      "nodes": [ 0 ]
    }
  ],
  "textures": [
    {
      "source": 0
    }
  ]
}
