{
  "accessors": [
    {
      "bufferView": 1,
      "componentType": 5126,
      "type": "VEC3",
      "count": 5384,
      "min": [-42, 16, 0],
      "max": [-16, 41, 16]
    },
    {
      "bufferView": 1,
      "componentType": 5126,
      "type": "VEC3",
      "byteOffset": 12,
      "count": 5384
    },
    {
      "bufferView": 1,
      "componentType": 5126,
      "type": "VEC2",
      "byteOffset": 24,
      "count": 5384
    },
    {
      "bufferView": 2,
      "componentType": 5125,
      "type": "SCALAR",
      "count": 16668
    },
    {
      "bufferView": 3,
      "componentType": 5126,
      "type": "VEC3",
      "count": 5166,
      "min": [-16, -11, 0],
      "max": [12, 11, 7]
    },
    {
      "bufferView": 3,
      "componentType": 5126,
      "type": "VEC3",
      "byteOffset": 12,
      "count": 5166
    },
    {
      "bufferView": 3,
      "componentType": 5126,
      "type": "VEC2",
      "byteOffset": 24,
      "count": 5166
    },
    {
      "bufferView": 4,
      "componentType": 5125,
      "type": "SCALAR",
      "count": 14736
    },
    {
      "bufferView": 5,
      "componentType": 5126,
      "type": "VEC3",
      "count": 3429,
      "min": [-16, 38, 0],
      "max": [14, 61, 7]
    },
    {
      "bufferView": 5,
      "componentType": 5126,
      "type": "VEC3",
      "byteOffset": 12,
      "count": 3429
    },
    {
      "bufferView": 5,
      "componentType": 5126,
      "type": "VEC2",
      "byteOffset": 24,
      "count": 3429
    },
    {
      "bufferView": 6,
      "componentType": 5125,
      "type": "SCALAR",
      "count": 11916
    },
    {
      "bufferView": 7,
      "componentType": 5126,
      "type": "VEC3",
      "count": 4902,
      "min": [-16, 16, 0],
      "max": [15, 47, 8]
    },
    {
      "bufferView": 7,
      "componentType": 5126,
      "type": "VEC3",
      "byteOffset": 12,
      "count": 4902
    },
    {
      "bufferView": 7,
      "componentType": 5126,
      "type": "VEC2",
      "byteOffset": 24,
      "count": 4902
    },
    {
      "bufferView": 8,
      "componentType": 5125,
      "type": "SCALAR",
      "count": 16788
    },
    {
      "bufferView": 9,
      "componentType": 5126,
      "type": "VEC3",
      "count": 5305,
      "min": [29, -13, 0],
      "max": [59, 16, 7]
    },
    {
      "bufferView": 9,
      "componentType": 5126,
      "type": "VEC3",
      "byteOffset": 12,
      "count": 5305
    },
    {
      "bufferView": 9,
      "componentType": 5126,
      "type": "VEC2",
      "byteOffset": 24,
      "count": 5305
    },
    {
      "bufferView": 10,
      "componentType": 5125,
      "type": "SCALAR",
      "count": 16884
    }
  ],
  "asset": {
    "generator": "goxel",
    "version": "2.0"
  },
  "bufferViews": [
    {
      "buffer": 0,
      "byteLength": 291
    },
    {
      "buffer": 1,
      "byteLength": 215360,
      "byteStride": 40
    },
    {
      "buffer": 2,
      "byteLength": 66672
    },
    {
      "buffer": 3,
      "byteLength": 206640,
      "byteStride": 40
    },
    {
      "buffer": 4,
      "byteLength": 58944
    },
    {
      "buffer": 5,
      "byteLength": 137160,
      "byteStride": 40
    },
    {
      "buffer": 6,
      "byteLength": 47664
    },
    {
      "buffer": 7,
      "byteLength": 196080,
      "byteStride": 40
    },
    {
      "buffer": 8,
      "byteLength": 67152
    },
    {
      "buffer": 9,
      "byteLength": 212200,
      "byteStride": 40
    },
    {
      "buffer": 10,
      "byteLength": 67536
    }
  ],
  "buffers": [
    {
      "uri": "data:application/octet-stream;base64,",
      "byteLength": 291
    },
    {
      "uri": "data:application/octet-stream;base64,",
      "byteLength": 215360
    },
    {
      "uri": "data:application/octet-stream;base64,",
      "byteLength": 66672
    },
    {
      "uri": "data:application/octet-stream;base64,",
      "byteLength": 206640
    },
    {
      "uri": "data:application/octet-stream;base64,",
      "byteLength": 58944
    },
    {
      "uri": "data:application/octet-stream;base64,",
      "byteLength": 137160
    },
    {
      "uri": "data:application/octet-stream;base64,",
      "byteLength": 47664
    },
    {
      "uri": "data:application/octet-stream;base64,",
      "byteLength": 196080
    },
    {
      "uri": "data:application/octet-stream;base64,",
      "byteLength": 67152
    },
    {
      "uri": "data:application/octet-stream;base64,",
      "byteLength": 212200
    },
    {
      "uri": "data:application/octet-stream;base64,",
      "byteLength": 67536
    }
  ],
  "images": [
    {
      "bufferView": 0,
      "mimeType": "image/png"
    }
  ],
  "meshes": [
    {
      "primitives": [
        {
          "indices": 3,
          "material": 0,
          "attributes": {
            "POSITION": 0,
            "NORMAL": 1,
            "TEXCOORD_0": 2
          }
        }
      ]
    },
    {
      "primitives": [
        {
          "indices": 7,
          "material": 0,
          "attributes": {
            "POSITION": 4,
            "NORMAL": 5,
            "TEXCOORD_0": 6
          }
        }
      ]
    },
    {
      "primitives": [
        {
          "indices": 11,
          "material": 0,
          "attributes": {
            "POSITION": 8,
            "NORMAL": 9,
            "TEXCOORD_0": 10
          }
        }
      ]
    },
    {
      "primitives": [
        {
          "indices": 15,
          "material": 0,
          "attributes": {
            "POSITION": 12,
            "NORMAL": 13,
            "TEXCOORD_0": 14
          }
        }
      ]
    },
    {
      "primitives": [
        {
          "indices": 19,
          "material": 0,
          "attributes": {
            "POSITION": 16,
            "NORMAL": 17,
            "TEXCOORD_0": 18
          }
        }
      ]
    }
  ],
  "materials": [
    {
      "name": "Material.1",
      "pbrMetallicRoughness": {
        "baseColorTexture": {
          "index": 0
        },
        "metallicFactor": 0.200000003,
        "roughnessFactor": 0.5
      }
    }
  ],
  "nodes": [
    {
      "children": [ 1, 2, 3, 4, 5 ],
      "matrix": [1, 0, 0, 0, 0, 0, -1, 0, 0, 1, 0, 0, 0, 0, 0, 1]
    },
    {
      "mesh": 0,
      "name": "Layer.1"
    },
    {
      "mesh": 1,
      "name": "Layer.2"
    },
    {
      "mesh": 2,
      "name": "Layer.3"
    },
    {
      "mesh": 3,
      "name": "Layer.4"
    },
    {
      "mesh": 4,
      "name": "Layer.5"
    }
  ],
  "scenes": [
    {
      "nodes": [ 0 ]
    }
  ],
  "textures": [
    {
      "source": 0
    }
  ]
}
