{
  "accessors": [
    {
      "bufferView": 1,
      "componentType": 5126,
      "type": "VEC3",
      "count": 9809,
      "min": [-18, -13, 8],
      "max": [13, 12, 32]
    },
    {
      "bufferView": 1,
      "componentType": 5126,
      "type": "VEC3",
      "byteOffset": 12,
      "count": 9809
    },
    {
      "bufferView": 1,
      "componentType": 5126,
      "type": "VEC2",
      "byteOffset": 24,
      "count": 9809
    },
    {
      "bufferView": 2,
      "componentType": 5125,
      "type": "SCALAR",
      "count": 21408
    },
    {
      "bufferView": 3,
      "componentType": 5126,
      "type": "VEC3",
      "count": 2419,
      "min": [-10, -13, 7],
      "max": [12, 13, 26]
    },
    {
      "bufferView": 3,
      "componentType": 5126,
      "type": "VEC3",
      "byteOffset": 12,
      "count": 2419
    },
    {
      "bufferView": 3,
      "componentType": 5126,
      "type": "VEC2",
      "byteOffset": 24,
      "count": 2419
    },
    {
      "bufferView": 4,
      "componentType": 5125,
      "type": "SCALAR",
      "count": 5628
    },
    {
      "bufferView": 5,
      "componentType": 5126,
      "type": "VEC3",
      "count": 480,
      "min": [-4, -12, 8],
      "max": [6, -11, 15]
    },
    {
      "bufferView": 5,
      "componentType": 5126,
      "type": "VEC3",
      "byteOffset": 12,
      "count": 480
    },
    {
      "bufferView": 5,
      "componentType": 5126,
      "type": "VEC2",
      "byteOffset": 24,
      "count": 480
    },
    {
      "bufferView": 6,
      "componentType": 5125,
      "type": "SCALAR",
      "count": 900
    }
  ],
  "asset": {
    "generator": "goxel",
    "version": "2.0"
  },
  "bufferViews": [
    {
      "buffer": 0,
      "byteLength": 965
    },
    {
      "buffer": 1,
      "byteLength": 392360,
      "byteStride": 40
    },
    {
      "buffer": 2,
      "byteLength": 85632
    },
    {
      "buffer": 3,
      "byteLength": 96760,
      "byteStride": 40
    },
    {
      "buffer": 4,
      "byteLength": 22512
    },
    {
      "buffer": 5,
      "byteLength": 19200,
      "byteStride": 40
    },
    {
      "buffer": 6,
      "byteLength": 3600
    }
  ],
  "buffers": [
    {
      "uri": "data:application/octet-stream;base64,",
      "byteLength": 965
    },
    {
      "uri": "data:application/octet-stream;base64,",
      "byteLength": 392360
    },
    {
      "uri": "data:application/octet-stream;base64,",
      "byteLength": 85632
    },
    {
      "uri": "data:application/octet-stream;base64,",
      "byteLength": 96760
    },
    {
      "uri": "data:application/octet-stream;base64,",
      "byteLength": 22512
    },
    {
      "uri": "data:application/octet-stream;base64,",
      "byteLength": 19200
    },
    {
      "uri": "data:application/octet-stream;base64,",
      "byteLength": 3600
    }
  ],
  "images": [
    {
      "bufferView": 0,
      "mimeType": "image/png"
    }
  ],
  "meshes": [
    {
      "primitives": [
        {
          "indices": 3,
          "material": 0,
          "attributes": {
            "POSITION": 0,
            "NORMAL": 1,
            "TEXCOORD_0": 2
          }
        }
      ]
    },
    {
      "primitives": [
        {
          "indices": 7,
          "material": 0,
          "attributes": {
            "POSITION": 4,
            "NORMAL": 5,
            "TEXCOORD_0": 6
          }
        }
      ]
    },
    {
      "primitives": [
        {
          "indices": 11,
          "material": 0,
          "attributes": {
            "POSITION": 8,
            "NORMAL": 9,
            "TEXCOORD_0": 10
          }
        }
      ]
    }
  ],
  "materials": [
    {
      "name": "Material.1",
      "pbrMetallicRoughness": {
        "baseColorTexture": {
          "index": 0
        },
        "metallicFactor": 0.200000003,
        "roughnessFactor": 0.5
      }
    }
  ],
  "nodes": [
    {
      "children": [ 1, 2, 3 ],
      "matrix": [1, 0, 0, 0, 0, 0, -1, 0, 0, 1, 0, 0, 0, 0, 0, 1]
    },
    {
      "mesh": 0,
      "name": "face#"
    },
    {
      "mesh": 1,
      "name": "lava"
    },
    {
      "mesh": 2,
      "name": "Jaws"
    }
  ],
  "scenes": [
    {
      "nodes": [ 0 ]
    }
  ],
  "textures": [
    {
      "source": 0
    }
  ]
}
